<svg xmlns="http://www.w3.org/2000/svg" viewBox="0 0 62.18 45.58"><defs><style>.cls-1{fill:#66f;}</style></defs><g id="Capa_2" data-name="Capa 2"><g id="Capa_1-2" data-name="Capa 1"><path class="cls-1" d="M29,4.17a18.26,18.26,0,0,0-3-1.84A23.12,23.12,0,0,0,15.57,0H0V45.58H15.57A23.12,23.12,0,0,0,26,43.25a18.36,18.36,0,0,0,3-1.86c5.28-4,8.32-10.53,8.32-18.6S34.31,8.13,29,4.17ZM26,29c-1.74,4.52-5.62,7-11.12,7H10.12V9.48h4.79c5.5,0,9.38,2.56,11.12,7.12a17.5,17.5,0,0,1,1,6.19A17.28,17.28,0,0,1,26,29Z"/><path class="cls-1" d="M54.19,22.2c4-1.29,7-4.87,7-10.38C61.23,4.61,56.2,0,47.73,0H29V.53A22.86,22.86,0,0,1,39.15,14.07V8.89h6.63c3.32,0,5.15,1.69,5.15,4.81s-1.83,4.74-5.15,4.74H40.07a32.34,32.34,0,0,1,.28,4.35,30.65,30.65,0,0,1-.22,3.76h6.36c3.38,0,5.45,1.89,5.45,5.13s-2,4.94-5.33,4.94H39.15v-5.1A23,23,0,0,1,29,45.05v.53H48.39c8.76,0,13.79-4.87,13.79-12.4C62.18,28,59,23.31,54.19,22.2Z"/><path class="cls-1" d="M54.19,22.2c4-1.29,7-4.87,7-10.38C61.23,4.61,56.2,0,47.73,0H29V.53A22.86,22.86,0,0,1,39.15,14.07V8.89h6.63c3.32,0,5.15,1.69,5.15,4.81s-1.83,4.74-5.15,4.74H40.07a32.34,32.34,0,0,1,.28,4.35,30.65,30.65,0,0,1-.22,3.76h6.36c3.38,0,5.45,1.89,5.45,5.13s-2,4.94-5.33,4.94H39.15v-5.1A23,23,0,0,1,29,45.05v.53H48.39c8.76,0,13.79-4.87,13.79-12.4C62.18,28,59,23.31,54.19,22.2Z"/></g></g></svg>